<svg xmlns="http://www.w3.org/2000/svg" xmlns:xlink="http://www.w3.org/1999/xlink" version="1.1" width="256" height="256" viewBox="0 0 256 256" xml:space="preserve">
<desc>Created with Fabric.js 1.7.22</desc>
<defs>
</defs>
<g transform="translate(128 128) scale(0.72 0.72)" style="">
	<g style="stroke: none; stroke-width: 0; stroke-dasharray: none; stroke-linecap: butt; stroke-linejoin: miter; stroke-miterlimit: 10; fill: none; fill-rule: nonzero; opacity: 1;" transform="translate(-175.05 -175.05000000000004) scale(3.89 3.89)" >
	<path d="M 52.145 9.528 V 1.011 c 0 -0.552 0.448 -1 1 -1 c 0.552 0 1 0.448 1 1 v 8.518 c 0 0.552 -0.448 1 -1 1 C 52.593 10.528 52.145 10.081 52.145 9.528 z" style="stroke: none; stroke-width: 1; stroke-dasharray: none; stroke-linecap: butt; stroke-linejoin: miter; stroke-miterlimit: 10; fill: rgb(0,0,0); fill-rule: nonzero; opacity: 1;" transform=" matrix(1 0 0 1 0 0) " stroke-linecap="round" />
	<path d="M 12.823 57.883 c 0 -0.603 0.229 -1.206 0.688 -1.665 l 9.587 -9.587 c 0.92 -0.918 2.414 -0.918 3.332 0 l 9.447 9.447 l 0 -26.887 c 0 -0.552 0.447 -1 1 -1 s 1 0.448 1 1 l 0 29.301 c 0 0.404 -0.243 0.77 -0.617 0.924 c -0.374 0.155 -0.804 0.069 -1.09 -0.217 L 25.015 48.045 c -0.139 -0.139 -0.365 -0.139 -0.505 0.001 l -9.585 9.585 c -0.14 0.139 -0.139 0.365 0 0.504 l 29.781 29.78 c 0.084 0.084 0.191 0.099 0.266 0.096 c 0.15 0.003 0.257 -0.012 0.341 -0.096 l 29.781 -29.78 c 0.18 -0.181 0.184 -0.321 0 -0.504 l -9.585 -9.586 c -0.139 -0.139 -0.365 -0.139 -0.504 0 L 53.852 59.199 c -0.286 0.286 -0.716 0.372 -1.09 0.217 c -0.374 -0.154 -0.617 -0.52 -0.617 -0.924 l 0 -40.141 c 0 -0.552 0.448 -1 1 -1 s 1 0.448 1 1 l 0 37.727 l 9.447 -9.447 c 0.919 -0.918 2.414 -0.918 3.332 0 l 9.586 9.586 c 0.891 0.892 0.89 2.444 0 3.332 l -29.78 29.78 c -0.463 0.464 -1.087 0.705 -1.755 0.68 c -0.593 0.025 -1.216 -0.216 -1.68 -0.68 l -29.781 -29.78 C 13.053 59.09 12.823 58.486 12.823 57.883 z" style="stroke: none; stroke-width: 1; stroke-dasharray: none; stroke-linecap: butt; stroke-linejoin: miter; stroke-miterlimit: 10; fill: rgb(0,0,0); fill-rule: nonzero; opacity: 1;" transform=" matrix(1 0 0 1 0 0) " stroke-linecap="round" />
	<path d="M 35.877 20.873 v -8.295 c 0 -0.552 0.447 -1 1 -1 s 1 0.448 1 1 v 8.295 c 0 0.552 -0.447 1 -1 1 S 35.877 21.425 35.877 20.873 z" style="stroke: none; stroke-width: 1; stroke-dasharray: none; stroke-linecap: butt; stroke-linejoin: miter; stroke-miterlimit: 10; fill: rgb(0,0,0); fill-rule: nonzero; opacity: 1;" transform=" matrix(1 0 0 1 0 0) " stroke-linecap="round" />
	<path d="M 44.011 41.544 V 7.318 c 0 -0.552 0.448 -1 1 -1 s 1 0.448 1 1 v 34.226 c 0 0.552 -0.448 1 -1 1 S 44.011 42.096 44.011 41.544 z" style="stroke: none; stroke-width: 1; stroke-dasharray: none; stroke-linecap: butt; stroke-linejoin: miter; stroke-miterlimit: 10; fill: rgb(0,0,0); fill-rule: nonzero; opacity: 1;" transform=" matrix(1 0 0 1 0 0) " stroke-linecap="round" />
</g>
</g>
</svg>